<svg width="538.137px" height="538.137px" viewBox="-40.61 0 538.137 538.137" xmlns="http://www.w3.org/2000/svg">
  <g id="Group_13" data-name="Group 13" transform="translate(-1124.204 -2310.279)">
    <path id="path206" d="M849.627-1498.45a45.108,45.108,0,0,0,25.4,17.053c1.012-14.893,1.995-30.133-1.967-44.547-1.484-5.387-4.047-11.04-9.067-13.493-4.157-2.04-9.327-1.373-13.26,1.067-5.633,3.507-10.064,10.32-9.553,16.933a45.154,45.154,0,0,0,8.445,22.987" transform="translate(490 4018.328)" fill="#6a3b1a"/>
    <path id="path208" d="M836.869-1666.089s35.916-18.467,38.947-21.453,4.611-6.053,8.623-4.573,2.543,5.48,2.543,5.48,5.144-1.307,7.391,1.573-1.928,10.907-1.928,10.907,35.447-25.52,40.575-22.227c9.187,5.893-34.9,29.653-32.521,31.547,1.095.88,8.9-.787,17.139-2.453,9.637-1.96,19.863-3.907,20.62-1.787,1.4,3.92-5.48,6.867-15.187,10.36s-34.685,12.32-46.212,16.747-24.688,9.267-24.688,9.267l-33.467,16.76-13.748-36.693,31.915-13.453" transform="translate(490 4018.328)" fill="#f7966c"/>
    <path id="path210" d="M875.337-1669.983c-.032-.787,9.593-14.08,11.524-16.733l.239.16c-4.567,6.293-11.391,15.893-11.468,16.573h-.295" transform="translate(490 4018.328)" fill="#e2474d"/>
    <path id="path212" d="M874.066-1657.849c-1.2-2,.467-9.053,1.072-11.413-1.324,1.773-5.168,6.573-8.084,6.747a2.252,2.252,0,0,1-1.909-.787c-1.368-1.533.021-6.12,4.129-13.627a123.815,123.815,0,0,1,6.883-11.173l.209.213a123.123,123.123,0,0,0-6.84,11.12c-3.981,7.267-5.42,11.867-4.161,13.267a1.932,1.932,0,0,0,1.672.693c3.36-.2,8.276-7.187,8.327-7.267l.492-.707-.229.84c-.027.093-2.656,9.68-1.307,11.947l-.253.147" transform="translate(490 4018.328)" fill="#e2474d"/>
    <path id="path214" d="M879.915-1643.543l-.263-.133c.107-.213,10.465-20.36,11.893-27.96.909-4.84-1.619-7.32-3.541-7.8a2.416,2.416,0,0,0-3.121,1.587c-1.208,3.813-7.839,18.2-11.059,20.68a30.814,30.814,0,0,1-3.091,1.933c-4.105,2.373-9.725,5.613-9.795,10.48h-.295c.072-5.04,5.777-8.333,9.941-10.733a34.748,34.748,0,0,0,3.059-1.907c3.112-2.4,9.792-16.853,10.957-20.547a2.736,2.736,0,0,1,3.473-1.787c2.511.64,4.608,3.64,3.76,8.147-1.436,7.653-11.816,27.84-11.92,28.04" transform="translate(490 4018.328)" fill="#e2474d"/>
    <path id="path216" d="M1048.12-1355.477s23.095-33.133,26.459-35.746,6.609-3.76,5.685-7.933-5.1-3.253-5.1-3.253,1.975-4.92-.573-7.533-11.072.453-11.072.453,30.024-31.72,27.444-37.24c-2.491-5.333-12.185,3.973-20.84,13.293-7.4,7.96-14.048,15.933-14.768,14.733-1.563-2.613,12.952-34.947,9.244-36.853s-7.539,4.507-12.3,13.667-16.835,32.733-22.753,43.573-12.48,23.227-12.48,23.227l-21.063,30.933,34.531,18.515,17.583-29.835" transform="translate(490 4018.328)" fill="#f7966c"/>
    <path id="path218" d="M1057.132-1393.09h-.024l.045-.28h0c.7,0,11.108-5.48,17.94-9.16l.14.253c-2.865,1.547-17.095,9.187-18.1,9.187" transform="translate(490 4018.328)" fill="#e2474d"/>
    <path id="path220" d="M1051.623-1383.09a3.19,3.19,0,0,1-2.489-.787,2.274,2.274,0,0,1-.535-2c.563-2.867,5.836-6.027,7.771-7.107-2.42.28-9.625,1-11.456-.467l.184-.227c2.064,1.64,11.917.32,12.016.293l.853-.107-.765.387c-.076.04-7.664,3.987-8.313,7.293a1.966,1.966,0,0,0,.468,1.747c1.229,1.44,5.968.613,13.712-2.36a126.751,126.751,0,0,0,11.928-5.293l.177.227a120.776,120.776,0,0,1-11.988,5.333c-5.305,2.04-9.173,3.067-11.563,3.067" transform="translate(490 4018.328)" fill="#e2474d"/>
    <path id="path222" d="M1030.943-1381.837a5.324,5.324,0,0,1-.792-.053l.036-.293c4.833.587,8.8-4.56,11.7-8.307a31.356,31.356,0,0,1,2.323-2.8c2.889-2.866,18.027-7.52,21.976-8.213a2.411,2.411,0,0,0,1.985-2.88c-.221-1.96-2.339-4.8-7.261-4.547-7.725.4-29.076,7.987-29.291,8.067l-.1-.28c.215-.08,21.605-7.68,29.373-8.08,4.584-.24,7.281,2.24,7.571,4.813a2.721,2.721,0,0,1-2.228,3.2c-3.811.667-19.025,5.36-21.82,8.12a30.655,30.655,0,0,0-2.3,2.787c-2.783,3.6-6.54,8.467-11.175,8.467" transform="translate(490 4018.328)" fill="#e2474d"/>
    <path id="path224" d="M774.915-1434.317s-18.744,139.886-21.944,181.945c-1.787,23.476-6.031,55.125-13.052,82.162H957.335A298.873,298.873,0,0,1,945.892-1203c-8.229-30.172-8.229-42.515-8.229-42.515s18.744,21.485,39.087,6.4,84.474-119.482,84.474-119.482l-48.131-32.293-45.043,72.421c-5.485-7.315,9.385-86.141-.673-106.714s-63.086-42.973-63.086-42.973-166.406-54.853-170.521-75.88,127.09-85.493,127.09-85.493-6.4-37.027-21.487-44.346c0,0-180.121,59.893-187.435,116.573s122.977,122.986,122.977,122.986" transform="translate(490 4018.328)" fill="#4f334b"/>
    <path id="path226" d="M937.663-1245.217l-.229-.109c-.064-.077-6.508-8.007-12.015-26.844-9.191-31.444-8.8-68.667-6.852-94.36a.307.307,0,0,1,.317-.28.3.3,0,0,1,.275.32c-1.943,25.64-2.336,62.794,6.831,94.153,5.472,18.721,11.839,26.556,11.9,26.633a.3.3,0,0,1-.04.417l-.189.069" transform="translate(490 4018.328)" fill="#fff"/>
    <path id="path228" d="M851.714-1486.516s-7.573-7.627-17.7-6.56l-35.749,46.733,26.724,19.56-23,10.253s40.832,186.768,41.043,187.36c0,0,1.821-101.7,13.935-168.253l-5.256-89.093" transform="translate(490 4018.328)" fill="#6b4668"/>
    <path id="path230" d="M929.514-1455.8l-4.987,42.067-26.557,4.187s6.057,16.307,5.125,24.227-54.261,128.738-60.06,156.146c0,0,1.821-127.306,13.935-168.253l59.905-64.92s5.979-1.973,12.639,6.547" transform="translate(490 4018.328)" fill="#6b4668"/>
    <path id="path232" d="M843.035-1169.912a.3.3,0,0,1-.3-.288c-.039-1.311-3.677-132.186,13.94-227.277a.284.284,0,0,1,.345-.24.3.3,0,0,1,.239.346c-17.605,95.029-13.969,225.842-13.931,227.153a.3.3,0,0,1-.288.305h-.008" transform="translate(490 4018.328)" fill="#fff"/>
    <path id="path234" d="M844.857-1458s10.251,57.773,12.113,60.573S903.1-1449.61,903.1-1449.61s-47.988-17.24-58.239-8.387" transform="translate(490 4018.328)" fill="#e5e5e5"/>
    <path id="path236" d="M903.015-1486.716s15.381,17.4,13.86,24.373-14.407,30.107-20.144,30.347-20.873-13.493-24.086-14.4-30.477-.067-32.313-5.12,8.032-33.507,14.457-38.787,20.919-12.48,48.227,3.587" transform="translate(490 4018.328)" fill="#fff"/>
    <path id="path238" d="M918.862-1521.29s-9.295,47.387-10.892,54.76a8.791,8.791,0,0,1-.675,1.867c-4.035,8.547-23.052,26.267-34.648,18.267-10.8-7.453-10.452-28.933-10.149-34.72.055-.933.1-1.453.1-1.453l15.947-54.933,40.321,16.213" transform="translate(490 4018.328)" fill="#f7966c"/>
    <path id="path240" d="M918.862-1521.29s-9.295,47.387-10.892,54.76a8.791,8.791,0,0,1-.675,1.867,58.665,58.665,0,0,1-43.985-15.653c-.275-.267-.551-.52-.812-.8.055-.933.1-1.453.1-1.453l15.947-54.933,40.321,16.213" transform="translate(490 4018.328)" fill="#e62"/>
    <path id="path242" d="M787.673-1589.6l-.175-.053-8.556-6.32-.117-.293.2-.227,46.42-14.92a.3.3,0,0,1,.373.187.291.291,0,0,1-.192.373L779.761-1596.1l8.089,5.973a.294.294,0,0,1,.063.413l-.24.12" transform="translate(490 4018.328)" fill="#fff"/>
    <path id="path244" d="M957.2-1514.916a129.464,129.464,0,0,1-3.153,18.4c-4.711,17.96-27.556,32.933-42.729,32.2s-47.788-20.52-53.18-39.36c-5.392-18.866,6.2-60.72,16.493-69.533a15.9,15.9,0,0,1,4.351-2.453,42.462,42.462,0,0,1,7.1-2.08c16.925-3.573,46.343-1.667,63.019,19.013a52.744,52.744,0,0,1,9.421,18.187,251.452,251.452,0,0,1-1.321,25.626" transform="translate(490 4018.328)" fill="#f7966c"/>
    <path id="path246" d="M957.2-1514.916a164.538,164.538,0,0,0-24.233-16.533c-22.72-13.067-51.248-16.24-51.248-16.24l-2.737-27.973-.432-4.36,7.532,2.28L949.1-1558.73a52.749,52.749,0,0,1,9.421,18.187,251.453,251.453,0,0,1-1.321,25.626" transform="translate(490 4018.328)" fill="#e62"/>
    <path id="path248" d="M841.242-1572.37c-3.037,5.253-4.324,12.96-5.165,18.173a72.621,72.621,0,0,0,.28,24.92c1.2,6.413,3.392,12.853,7.784,17.68-7.291-8-2.148-20.267,7.535-22.72,5.285-1.32,9.1,2.987,10.529,7.76a20.329,20.329,0,0,1-1.7,15.533c6.195-1.507,11.549-5.573,15.556-10.533s6.783-10.787,9.183-16.693c3.821-9.4,6.791-19.96,3.521-29.573,3.309,6.067,6.045,10.533,13.347,12.107a52,52,0,0,0,10.975.76c2.249,0,4.5,0,6.736.173a42.555,42.555,0,0,1,23.155,9.373,41.744,41.744,0,0,1,8.664,9.213c2.2,3.307,5.308,6.333,5.661,10.507-.172-2.04,1.355-5.187,1.761-7.253q.822-4.18,1.231-8.427a88.091,88.091,0,0,0,.031-16.507,87.47,87.47,0,0,0-3.049-16.213c-1.565-5.413-3.247-8.547-7.26-12.453-8.791-8.56-20.991-13.76-33.253-13.32s-24.357,6.773-31.036,17.067c.071-.107-9.439-2.24-10.367-2.32a44.1,44.1,0,0,0-11.088.387c-7.043,1.146-14.725,3.987-20.167,8.747a14.2,14.2,0,0,0-2.864,3.613" transform="translate(490 4018.328)" fill="#6a3b1a"/>
    <path id="path250" d="M852.382-1536.423a12.325,12.325,0,0,0-11.261,5.787,14.971,14.971,0,0,0-1.177,12.827,19.109,19.109,0,0,0,8.539,9.867,10.069,10.069,0,0,0,6.324,1.613,9.474,9.474,0,0,0,5.861-4.053c5.776-7.867,3.5-24.933-8.285-26.04" transform="translate(490 4018.328)" fill="#f7966c"/>
    <path id="path252" d="M859.238-1527.263a12.839,12.839,0,0,1,.087,10.693c-.711,1.68-1.919,3.373-3.711,3.707a4.357,4.357,0,0,1-3.876-1.493,9.194,9.194,0,0,1-1.9-3.867c-.937-3.453-1.675-10.133.887-13.147s7.337,1.813,8.511,4.107" transform="translate(490 4018.328)" fill="#e62"/>
    <path id="path254" d="M852.779-1509.743l-.159-.44a11.857,11.857,0,0,0,7.533-12c-.183-3.187-2.025-7.36-5.2-9.16a5.948,5.948,0,0,0-5.925,0,7,7,0,0,0-3.613,7.467l-.463.107a7.462,7.462,0,0,1,3.855-7.987,6.38,6.38,0,0,1,6.381,0c3.321,1.88,5.249,6.227,5.437,9.547a12.327,12.327,0,0,1-7.848,12.467" transform="translate(490 4018.328)" fill="#e2474d"/>
    <path id="path256" d="M840.55-1550.836l-61.432-45.373,144.16-46.333,86.941,79.24-47.26,15.613s-94.633-19.827-122.409-3.147" transform="translate(490 4018.328)" fill="#4f334b"/>
    <path id="path258" d="M835-1536.81s34.12-25.32,76.375-15.773,47.078,29.533,47.078,29.533l9.765-53.453s-25.8-27.44-69.8-27.787-66.361,18.08-66.361,18.08l2.939,49.4" transform="translate(490 4018.328)" fill="#6b4668"/>
    <path id="path754" d="M634.205-1445.53a.209.209,0,0,1,0-.04v.04" transform="translate(490 4018.328)" fill="#b5393e"/>
    <path id="path766" d="M1087.451-1708.049h0" transform="translate(490 4018.328)" fill="#fff"/>
    <path id="path772" d="M875.347-1670.049c.368-1.293,9.624-14.067,11.513-16.667l.239.16c-4.4,6.053-10.881,15.173-11.431,16.453l.187-.68-.492.707s-.007.013-.016.027" transform="translate(490 4018.328)" fill="#ec898d"/>
    <path id="path774" d="M874.066-1657.849c-1.2-2,.467-9.053,1.072-11.413-1.324,1.773-5.168,6.573-8.084,6.747a.661.661,0,0,1-.16.013,2.272,2.272,0,0,1-1.749-.8,2.9,2.9,0,0,1-.488-2.2l.425-.907c-.283,1.4-.191,2.373.283,2.907a1.966,1.966,0,0,0,1.52.707.588.588,0,0,0,.152-.013c3.265-.187,8-6.8,8.311-7.24.009-.013.015-.027.016-.027l.492-.707-.187.68-.043.16c-.027.093-2.636,9.6-1.323,11.92l-.071.08-.167.093m-2.5-22.507,1.157-2.493c1.255-2.027,2.328-3.667,2.929-4.547.28-.413.457-.653.5-.707l.105.107.1.107c-.175.173-2.367,3.413-4.8,7.533" transform="translate(490 4018.328)" fill="#ec898d"/>
    <path id="path776" d="M879.915-1643.543l-.263-.133c.107-.213,10.465-20.36,11.893-27.96.909-4.84-1.619-7.32-3.541-7.8a2.989,2.989,0,0,0-.819-.107,2.311,2.311,0,0,0-2.3,1.693c-1.208,3.813-7.839,18.2-11.059,20.68a30.814,30.814,0,0,1-3.091,1.933c-4.105,2.373-9.725,5.613-9.795,10.48h-.295c.072-5.04,5.777-8.333,9.941-10.733a34.748,34.748,0,0,0,3.059-1.907,6.6,6.6,0,0,0,.588-.547c.023-.027.047-.053.071-.08,3.309-3.64,9.209-16.48,10.3-19.92a2.624,2.624,0,0,1,2.6-1.893,4.054,4.054,0,0,1,.872.107c2.511.64,4.608,3.64,3.76,8.147-1.436,7.653-11.816,27.84-11.92,28.04" transform="translate(490 4018.328)" fill="#ec898d"/>
    <path id="path784" d="M917.474-1342.61c.124-8.627.548-16.733,1.093-23.92a.306.306,0,0,1,.3-.28h.015a.3.3,0,0,1,.275.32c-.516,6.813-.923,14.44-1.071,22.547l-.615,1.333" transform="translate(490 4018.328)" fill="#fff"/>
    <path id="path790" d="M842.526-1181.485c-.14-10.6-.236-27.987.144-49.3.423-23.572,1.428-51.944,3.6-81.21,2.057-27.7,5.16-56.192,9.808-82.205.2-1.094.4-2.2.6-3.28a.279.279,0,0,1,.157-.213,2.468,2.468,0,0,0,.135.267.242.242,0,0,0,.216.093h.068c-10.06,54.333-13.181,120.357-14,167.18-.353,20.212-.279,36.849-.149,47.424l-.577,1.241" transform="translate(490 4018.328)" fill="#fff"/>
    <path id="path792" d="M857.186-1397.33a.241.241,0,0,1-.216-.094,2.412,2.412,0,0,1-.135-.267c-1.607-3.733-7.371-34.827-10.277-50.853,8.747,1.733,23.731,1.48,26.081,2.133,0,.013.005.013.008.013a10.672,10.672,0,0,0,2.149,1.16c3.681,2.427,10.368,7.866,15.773,10.973-1.132,1.36-2.309,2.787-3.512,4.24-12.217,14.693-27.348,32.36-29.8,32.693h-.068" transform="translate(490 4018.328)" fill="#eee"/>
    <path id="path794" d="M896.587-1432c-1.46,0-3.485-.84-5.755-2.12a2.591,2.591,0,0,0-.263-.147c-5.405-3.107-12.092-8.547-15.773-10.973a11.852,11.852,0,0,0,4.568.867c11.131,0,24.609-13.253,27.931-20.293h0c.029-.053.059-.12.087-.173a26.408,26.408,0,0,0,3.936.52c.359.027.72.027,1.088.027a27.415,27.415,0,0,0,4.459-.387,6.183,6.183,0,0,1,.011,2.333h0c-1.521,6.987-14.407,30.106-20.144,30.347h-.144m-23.948-14.413c-2.351-.653-17.335-.4-26.081-2.133-3.308-.653-5.724-1.587-6.227-2.973-1.56-4.293,5.333-25.493,11.383-35h0a16.57,16.57,0,0,1,3.075-3.787c.413-.333.86-.68,1.341-1.027a27.033,27.033,0,0,1,6.419-3.44c.792,1.146,1.66,2.28,2.595,3.413l-2.549,8.787s-.041.52-.1,1.453c-.3,5.787-.647,27.253,10.141,34.707" transform="translate(490 4018.328)" fill="#fff"/>
    <path id="path796" d="M879.365-1444.37a11.852,11.852,0,0,1-4.568-.867,10.66,10.66,0,0,1-2.149-1.16s-.005,0-.008-.013c-10.788-7.453-10.444-28.92-10.141-34.707.055-.933.1-1.453.1-1.453l2.549-8.787h0l-2.549,8.787s-.041.52-.1,1.453c.261.28.537.533.812.8a58.726,58.726,0,0,0,39.955,15.8c1.344,0,2.691-.04,4.031-.146-3.321,7.04-16.8,20.293-27.931,20.293" transform="translate(490 4018.328)" fill="#fabca1"/>
    <path id="path798" d="M903.264-1464.516a58.727,58.727,0,0,1-39.955-15.8c-.275-.267-.551-.52-.812-.8.055-.933.1-1.453.1-1.453l2.549-8.787c10.645,12.827,29.852,23.96,42.238,26.52-.028.053-.057.12-.087.173h0c-1.34.107-2.687.147-4.031.147" transform="translate(490 4018.328)" fill="#f49d71"/>
    <path id="path802" d="M957.2-1514.916h0a164.538,164.538,0,0,0-24.233-16.533c-16.047-9.227-34.992-13.52-44.736-15.253a49.809,49.809,0,0,0,1.68-8.013c.692-.013,1.384-.013,2.084-.013a87.368,87.368,0,0,1,19.381,2.147c32.515,7.333,42.867,20.88,45.911,26.72.005.067.011.12.016.173h0c0-.053-.008-.107-.011-.16.3.587.531,1.08.7,1.493-.189,2.973-.447,6.16-.795,9.44" transform="translate(490 4018.328)" fill="#f49d71"/>
    <path id="path806" d="M853.807-1506.263a10.885,10.885,0,0,1-5.325-1.68,20.265,20.265,0,0,1-5.808-4.987,17.372,17.372,0,0,1-2.731-4.88c-.023-.067-.044-.133-.067-.187a14.954,14.954,0,0,1,1.244-12.64,12.482,12.482,0,0,1,10.273-5.84,8.171,8.171,0,0,1,.988.053c11.387,1.067,13.9,17.04,8.84,25.213-.176.293-.361.56-.555.827a11.559,11.559,0,0,1-3.313,3.12,7.5,7.5,0,0,1-2.548.933,8.393,8.393,0,0,1-1,.067m4.164-8.053a10.976,10.976,0,0,1-5.351,4.133l.159.44a12.327,12.327,0,0,0,7.848-12.467,12.788,12.788,0,0,0-.788-3.627,11.415,11.415,0,0,0-.6-1.427c-.071-.133-.153-.28-.249-.44a10.249,10.249,0,0,0-3.8-4.053,6.293,6.293,0,0,0-3.14-.853,6.87,6.87,0,0,0-3.241.853,7.462,7.462,0,0,0-3.855,7.987l.463-.107a6.994,6.994,0,0,1,3.613-7.467,6.707,6.707,0,0,1,2.693-.787,2.764,2.764,0,0,0-1,.76c-2.561,3.013-1.824,9.693-.887,13.147a9.2,9.2,0,0,0,1.9,3.867A4.588,4.588,0,0,0,855-1512.81a3.2,3.2,0,0,0,.619-.053,4.12,4.12,0,0,0,2.357-1.453" transform="translate(490 4018.328)" fill="#fabca1"/>
    <path id="path808" d="M855-1512.81a4.588,4.588,0,0,1-3.257-1.547,9.2,9.2,0,0,1-1.9-3.867c-.937-3.453-1.675-10.133.887-13.147a2.765,2.765,0,0,1,1-.76h.325a5.787,5.787,0,0,1,2.907.787c3.173,1.8,5.016,5.973,5.2,9.16a12.547,12.547,0,0,1-2.183,7.867,4.12,4.12,0,0,1-2.357,1.453,3.23,3.23,0,0,1-.619.053m4.844-13.027a14.914,14.914,0,0,0-.851-1.867c.1.16.179.307.249.44a11.363,11.363,0,0,1,.6,1.427" transform="translate(490 4018.328)" fill="#f49d71"/>
    <path id="path810" d="M852.779-1509.743l-.159-.44a10.976,10.976,0,0,0,5.351-4.133,12.547,12.547,0,0,0,2.183-7.867c-.183-3.187-2.025-7.36-5.2-9.16a5.787,5.787,0,0,0-2.907-.787h-.325a6.706,6.706,0,0,0-2.693.787,7,7,0,0,0-3.613,7.467l-.463.107a7.462,7.462,0,0,1,3.855-7.987,6.872,6.872,0,0,1,3.241-.853,6.292,6.292,0,0,1,3.14.853,10.25,10.25,0,0,1,3.8,4.053,14.905,14.905,0,0,1,.851,1.867,12.786,12.786,0,0,1,.788,3.627,12.327,12.327,0,0,1-7.848,12.467" transform="translate(490 4018.328)" fill="#ec898d"/>
    <path id="path884" d="M1030.943-1381.837a5.324,5.324,0,0,1-.792-.053l.036-.293a4.848,4.848,0,0,0,.755.053c4.024,0,7.415-3.854,10.052-7.213l-.528,1.133c-2.559,3.147-5.749,6.373-9.523,6.373m.673-19.027-.1-.28c.139-.053,9.133-3.24,17.573-5.613l-.164.36c-8.35,2.347-17.172,5.48-17.311,5.533" transform="translate(490 4018.328)" fill="#ec898d"/>
    <path id="path888" d="M937.663-1245.217l-.229-.109c-.053-.064-4.532-5.575-9.208-18.3l.353-.761c4.711,13.016,9.259,18.615,9.313,18.68a.3.3,0,0,1-.031.409l-.009.008-.184.067-.005,0" transform="translate(490 4018.328)" fill="#fff"/>
  </g>
</svg>
